<svg xmlns="http://www.w3.org/2000/svg" version="1.1" xmlns:xlink="http://www.w3.org/1999/xlink" xmlns:svgjs="http://svgjs.dev/svgjs" viewBox="0 0 800 800"><defs><filter id="ssspot-filter" x="-20%" y="-20%" width="140%" height="140%" filterUnits="objectBoundingBox" primitiveUnits="userSpaceOnUse" color-interpolation-filters="sRGB">
	<feTurbulence type="turbulence" baseFrequency="0.022 0.218" numOctaves="2" seed="264" stitchTiles="stitch" x="0%" y="0%" width="100%" height="100%" result="turbulence"></feTurbulence>
	<feGaussianBlur stdDeviation="0 3" x="0%" y="0%" width="100%" height="100%" in="turbulence" edgeMode="duplicate" result="blur"></feGaussianBlur>
	<feDisplacementMap in="SourceGraphic" in2="blur" scale="32" xChannelSelector="R" yChannelSelector="B" x="0%" y="0%" width="100%" height="100%" result="displacementMap"></feDisplacementMap>
</filter></defs><rect width="100%" height="100%" fill="hsl(32, 100%, 89%)"></rect><g fill="hsl(265, 55%, 20%)" filter="url(#ssspot-filter)"><circle r="6.09468848337581" cx="694.5409915070085" cy="617.9080475006882" opacity="0.9877021870824918"></circle><circle r="8.67768409045015" cx="189.65570680128172" cy="151.21991761868372" opacity="0.9101663721275883"></circle><circle r="3.880449176005544" cx="236.73188315336526" cy="21.62560126741448" opacity="0.8117544269867473"></circle><circle r="8.496791337034526" cx="533.9807134686151" cy="498.74582123998414" opacity="0.3154174624818595"></circle><circle r="6.4349182449995705" cx="747.5154877550534" cy="238.12234472595858" opacity="0.8311675933029878"></circle><circle r="7.534102669170428" cx="19.375700334875475" cy="258.7065865837926" opacity="0.9577915458221465"></circle><circle r="5.790696204897804" cx="366.90921137375204" cy="390.041152662059" opacity="0.6919026785605101"></circle><circle r="4.348761389280981" cx="433.65780056226004" cy="597.169946120013" opacity="0.28376446323960264"></circle><circle r="7.097407422877014" cx="20.33340257978181" cy="361.4912761805612" opacity="0.6256758021908577"></circle><circle r="9.856372859578224" cx="157.74500981166884" cy="503.49975797838323" opacity="0.8157833480055553"></circle><circle r="8.627338040767352" cx="140.46284592881585" cy="617.2563178260579" opacity="0.30404415185509925"></circle><circle r="7.505130910940145" cx="302.3644130114714" cy="350.658584664108" opacity="0.7941140741631004"></circle><circle r="8.679525230402692" cx="772.7142757173734" cy="388.4314168661747" opacity="0.2749413514189233"></circle><circle r="9.264327166981047" cx="20.793550300078074" cy="458.0469058918801" opacity="0.22552554099124958"></circle><circle r="7.006483085085431" cx="363.9289652468608" cy="238.31457534466716" opacity="0.21337017759749694"></circle><circle r="10.399588559156523" cx="641.0169617748983" cy="599.0041395096005" opacity="0.3635567831363872"></circle><circle r="7.8426196086482385" cx="570.7921597339749" cy="271.1601422642363" opacity="0.8635012954348558"></circle><circle r="5.289487663647459" cx="404.9978505671872" cy="601.4674460329697" opacity="0.4077340011880688"></circle><circle r="7.409582766641229" cx="757.0471186422086" cy="713.1470822206802" opacity="0.41099381038325933"></circle><circle r="8.234803528692042" cx="502.70535989276567" cy="508.3677432666419" opacity="0.16919132348025995"></circle><circle r="10.103420400400353" cx="282.6837729590044" cy="99.35901792304003" opacity="0.5093658830332002"></circle><circle r="7.851824228281467" cx="688.561500822792" cy="161.50770382839792" opacity="0.1889673346429804"></circle><circle r="8.636924857338276" cx="552.6849559417338" cy="595.1144748451779" opacity="0.8656925579369211"></circle><circle r="8.860790328108356" cx="657.966693689849" cy="436.11870196415833" opacity="0.9224711430854455"></circle><circle r="3.498278727435579" cx="280.90774393785887" cy="11.550910069979846" opacity="0.13970102921994754"></circle><circle r="10.55008395971585" cx="586.3527620144463" cy="753.2741085151474" opacity="0.2607343098933671"></circle><circle r="4.740548141254358" cx="237.93211844462184" cy="324.16232829254295" opacity="0.3157819942000156"></circle><circle r="5.3318969112394985" cx="392.17840537482647" cy="41.51824789056136" opacity="0.21608118185136865"></circle><circle r="9.077128794503933" cx="774.7562688704145" cy="479.1364037121476" opacity="0.326088381328381"></circle><circle r="5.983601563466113" cx="781.5939927403151" cy="426.24839016292015" opacity="0.7872795021153637"></circle><circle r="11.814071529091475" cx="233.63327760708034" cy="525.655530817261" opacity="0.6970040067699398"></circle><circle r="11.00992198931825" cx="429.63527392129487" cy="708.8953443823261" opacity="0.5990049854403509"></circle><circle r="6.856018654751942" cx="52.99305195156036" cy="324.35152528495837" opacity="0.2014978852866736"></circle><circle r="5.631805057643451" cx="81.60847241265056" cy="692.6807095668142" opacity="0.7179666321922434"></circle><circle r="4.617402469898603" cx="199.77253955296257" cy="774.2384667173648" opacity="0.8605982607755206"></circle><circle r="8.938632212636293" cx="471.58233455015875" cy="622.9352778365655" opacity="0.4894048818801031"></circle><circle r="6.449723219398545" cx="617.3627489971474" cy="550.0990581770336" opacity="0.27798608905538214"></circle><circle r="5.891266439224135" cx="214.1232748808205" cy="257.0961198552998" opacity="0.3960877645820309"></circle><circle r="9.68068700596115" cx="35.403629115446485" cy="778.5358176781535" opacity="0.4060383312681979"></circle><circle r="3.204025786463996" cx="326.79875216492485" cy="12.788693689042914" opacity="0.7610647027142016"></circle><circle r="4.874170167993981" cx="48.679551464809016" cy="539.9566086397047" opacity="0.36234668064761"></circle><circle r="11.546069288529957" cx="507.751372050184" cy="185.42510544446674" opacity="0.8781156791911617"></circle><circle r="4.483097743418163" cx="587.64919194417" cy="344.5766490802932" opacity="0.5513305447087877"></circle><circle r="6.6595366188400416" cx="457.8081878154504" cy="782.5177409278353" opacity="0.10143438359535792"></circle><circle r="10.098763121043932" cx="240.90709293618718" cy="119.11366649339719" opacity="0.44366759644865783"></circle><circle r="8.01589888188078" cx="568.4167450584368" cy="490.91691123217475" opacity="0.4899359625723979"></circle><circle r="4.232037825744666" cx="14.53789690821912" cy="719.5440143264057" opacity="0.5284661952585425"></circle><circle r="7.295754722827397" cx="678.2908366042228" cy="122.08846085877828" opacity="0.8531497753927397"></circle><circle r="6.7738412458391855" cx="363.651983796203" cy="314.96033766093507" opacity="0.6620915917412263"></circle><circle r="5.292863660093308" cx="493.4046704128008" cy="585.957431116377" opacity="0.7336163935693084"></circle><circle r="6.199968270787331" cx="200.99550569694952" cy="677.6028471510816" opacity="0.9531038088947865"></circle><circle r="5.308569194682753" cx="325.076144500002" cy="375.4507417150477" opacity="0.5815267922039598"></circle><circle r="6.17069457913207" cx="81.00896349004644" cy="134.20623731702983" opacity="0.10017035240937283"></circle><circle r="6.391881672093973" cx="137.45650455815525" cy="193.9622397516278" opacity="0.792393194863358"></circle><circle r="10.87409544229255" cx="401.9759198272448" cy="195.97188217541208" opacity="0.33231264637214825"></circle><circle r="7.115198746450452" cx="524.8290534199455" cy="774.4004100713831" opacity="0.934054753595853"></circle><circle r="8.637230012492617" cx="89.02235901894718" cy="460.25299053864364" opacity="0.7443040789604587"></circle><circle r="7.5332893859339976" cx="508.69063756407456" cy="340.22988361752095" opacity="0.4017332598164314"></circle><circle r="8.315282098396985" cx="548.36656191632" cy="235.45499317318206" opacity="0.711786985856724"></circle><circle r="8.67228693294785" cx="93.89960116761345" cy="416.4815464651529" opacity="0.5481869699271608"></circle><circle r="7.23563179877832" cx="235.35413656830744" cy="212.2357395225553" opacity="0.9986285215291754"></circle><circle r="10.033732920845976" cx="601.3664170146853" cy="690.3747356502938" opacity="0.7266310236647064"></circle><circle r="9.312844723308178" cx="470.86013648038477" cy="123.82660446948188" opacity="0.1458928472321227"></circle><circle r="10.543841339310443" cx="332.9932732552391" cy="200.93457056464771" opacity="0.7377165069286373"></circle><circle r="6.398652475529028" cx="633.695340123415" cy="261.515203416239" opacity="0.534592969407622"></circle><circle r="5.780190306068801" cx="144.57503528922982" cy="342.1424499811859" opacity="0.9706302760986099"></circle><circle r="7.102372948734557" cx="15.866083854777086" cy="499.9873890635942" opacity="0.716126865088653"></circle><circle r="5.76912661413821" cx="172.16028805703988" cy="371.7836683743237" opacity="0.38002407500877655"></circle><circle r="5.083429421050762" cx="473.3261935701551" cy="324.9275105341163" opacity="0.7156932685663825"></circle><circle r="10.976383754896698" cx="723.2829630705222" cy="375.79875970085607" opacity="0.8410839453144314"></circle><circle r="7.15357360213703" cx="739.460562969601" cy="278.4209035384134" opacity="0.18899461282275004"></circle><circle r="3.7692546793819357" cx="753.7407452480936" cy="81.62509372918275" opacity="0.6223241536274061"></circle><circle r="5.630054056902979" cx="605.6765759686464" cy="283.23796365362614" opacity="0.29718952813915234"></circle><circle r="7.551973236154984" cx="186.60636752082485" cy="615.5658276361563" opacity="0.6379334698627649"></circle><circle r="10.201601043749502" cx="409.29745056131736" cy="774.1830747727839" opacity="0.7694984296208645"></circle><circle r="10.17055004663787" cx="533.6765021122916" cy="62.29037711466636" opacity="0.27844638424954316"></circle><circle r="8.317479639243377" cx="146.6749845666056" cy="23.724506718319248" opacity="0.5420800672803345"></circle><circle r="11.02895911889002" cx="281.77400360327977" cy="165.9692338845831" opacity="0.8398275901526705"></circle><circle r="9.706916231921657" cx="443.3280197122641" cy="437.6227155247499" opacity="0.9994320649987152"></circle><circle r="7.827321216991503" cx="783.1953445780725" cy="80.34526615918642" opacity="0.3194280556049952"></circle><circle r="11.470369656861923" cx="765.0581566284254" cy="538.2092579316202" opacity="0.1956972495984033"></circle><circle r="6.979511615892213" cx="516.6815816985225" cy="607.220999575454" opacity="0.3468782374457301"></circle><circle r="6.423628120614945" cx="540.7867890576055" cy="375.4429328941068" opacity="0.18445355805612335"></circle><circle r="6.065792530112699" cx="229.3869388752543" cy="361.07460194185035" opacity="0.4220275089386264"></circle><circle r="9.845729035912232" cx="687.1172505448169" cy="533.9297547578699" opacity="0.9332841046614758"></circle><circle r="9.475848925380815" cx="95.8562245660194" cy="40.048719702375855" opacity="0.8812871034805512"></circle><circle r="7.804895903462342" cx="608.0927005082957" cy="364.91000111168574" opacity="0.9717512594149296"></circle><circle r="5.34705820479425" cx="650.4180873871715" cy="551.7716057491574" opacity="0.38502598597964777"></circle><circle r="5.442508755311033" cx="542.6811678294129" cy="309.51783610093077" opacity="0.6399005546668654"></circle><circle r="4.765249934928713" cx="424.4428886726253" cy="666.0246488855125" opacity="0.6277370880163746"></circle><circle r="7.739386086405039" cx="565.7301373019313" cy="539.2729715262192" opacity="0.3454644241687238"></circle><circle r="6.217444588296436" cx="275.14629544861504" cy="589.7081047150706" opacity="0.6241305581030929"></circle><circle r="5.11035049432748" cx="785.5738877919517" cy="236.585378034369" opacity="0.21102975029922277"></circle><circle r="5.363346957236727" cx="710.3140162568684" cy="275.27259984014825" opacity="0.8690694535150498"></circle><circle r="7.48688576426159" cx="275.2562991319681" cy="661.7136718296042" opacity="0.4904688900503845"></circle><circle r="5.412241553460949" cx="322.11800808575293" cy="81.7867566030828" opacity="0.8555980724330816"></circle><circle r="6.075979178548304" cx="38.09821979575496" cy="593.5506785205669" opacity="0.6870511433607281"></circle><circle r="5.634914214345354" cx="85.9324134821171" cy="217.17783775421793" opacity="0.5315259624436005"></circle><circle r="7.661383306204532" cx="65.27258095363673" cy="287.3210795956726" opacity="0.606385233204887"></circle><circle r="6.288806510325254" cx="16.0735219753172" cy="539.6246564872397" opacity="0.5922182065036803"></circle><circle r="5.010675496425976" cx="727.7237218633139" cy="333.91382267259456" opacity="0.45382467779014535"></circle><circle r="6.6868578184130865" cx="600.8474892032061" cy="413.17206321579215" opacity="0.32539653949095687"></circle><circle r="6.868831867493556" cx="331.45580918733754" cy="414.2963140567238" opacity="0.7515107278335577"></circle><circle r="9.141223544371474" cx="357.44246382651994" cy="512.4998130172265" opacity="0.2548303000998526"></circle><circle r="6.115826333991374" cx="628.9666098584586" cy="503.1094352833327" opacity="0.5816987333886163"></circle><circle r="3.9148817263937747" cx="788.9680964201431" cy="702.497149802925" opacity="0.7719357723065569"></circle><circle r="6.586962073517351" cx="633.8881430846077" cy="649.3395044863047" opacity="0.1393237571819214"></circle><circle r="7.11528592036971" cx="687.1516542448428" cy="398.54997539593063" opacity="0.44040511262148674"></circle><circle r="6.97368917168644" cx="422.91596316522674" cy="631.9638357484798" opacity="0.2020345630574854"></circle><circle r="6.434540629195772" cx="311.8781927476415" cy="634.1050374016389" opacity="0.28713009766033204"></circle><circle r="8.956618998693124" cx="412.71018076761146" cy="94.988023897284" opacity="0.12174720957836521"></circle><circle r="7.595615084352217" cx="528.8572222601015" cy="655.1384170080885" opacity="0.5122139645075496"></circle><circle r="10.07708718714609" cx="231.25464578161643" cy="475.3824937193769" opacity="0.4047132935814203"></circle><circle r="8.84675324385966" cx="466.89988447336987" cy="738.6358823295404" opacity="0.12934603828759492"></circle><circle r="7.226896143606273" cx="115.29060606636337" cy="288.540802678808" opacity="0.8811217157807667"></circle><circle r="9.4575893977319" cx="102.41248564152855" cy="328.16774759247204" opacity="0.345583674317911"></circle><circle r="6.655250633091403" cx="539.3619114466436" cy="455.76091987608294" opacity="0.2807260854362919"></circle><circle r="8.050705547518689" cx="642.8603179383057" cy="76.97987614432984" opacity="0.9369708221705016"></circle><circle r="9.38946942411855" cx="546.6798153589822" cy="19.102425074066737" opacity="0.9755395568033691"></circle><circle r="5.9772672133300855" cx="191.54251656781622" cy="575.6933097545364" opacity="0.438284404549375"></circle><circle r="4.027154763913772" cx="473.8351292049709" cy="566.7180032789458" opacity="0.16906364118832767"></circle><circle r="9.355770594771418" cx="253.799836739186" cy="410.0073187195128" opacity="0.921269951754044"></circle><circle r="5.393449400163591" cx="310.8412926143362" cy="42.62600065116037" opacity="0.3334744126957724"></circle><circle r="5.587305968142048" cx="200.53265885585384" cy="20.791223116783552" opacity="0.41867724846921306"></circle><circle r="6.789418128879589" cx="220.68652274070175" cy="642.7356800238687" opacity="0.6495921407942806"></circle><circle r="8.317538276124331" cx="92.6142546839249" cy="96.90801971346559" opacity="0.6271210989613335"></circle><circle r="7.790422770951892" cx="582.9295084294208" cy="309.7810358150379" opacity="0.6656702477085944"></circle><circle r="7.914361543920684" cx="97.35910093439045" cy="775.3087871913543" opacity="0.7237276953073424"></circle><circle r="10.792771244779939" cx="281.21333705910524" cy="774.2111186122349" opacity="0.8597340623717198"></circle><circle r="4.175682142513063" cx="789.7155904470586" cy="323.7628899453967" opacity="0.38221834702189217"></circle><circle r="7.096441191963791" cx="449.2314477984394" cy="72.88272095476717" opacity="0.5371890409325063"></circle><circle r="6.917715705049749" cx="319.2973019575064" cy="564.5305878257923" opacity="0.8386364977480721"></circle><circle r="9.792733749133381" cx="602.3179925010495" cy="171.69266573891565" opacity="0.9865387245860078"></circle><circle r="11.36866833439204" cx="578.5184752963671" cy="640.7414309139767" opacity="0.42731595136197176"></circle><circle r="5.184466423442149" cx="585.6523894716036" cy="572.6080506519597" opacity="0.2115209261948274"></circle><circle r="9.379152426682282" cx="165.99033948065488" cy="292.41872473009823" opacity="0.7674343413597043"></circle><circle r="4.54844347462071" cx="661.2192480241799" cy="255.9175277078258" opacity="0.8578694772587695"></circle><circle r="9.951886141833391" cx="477.013974789237" cy="673.2227878388221" opacity="0.3046848058303602"></circle><circle r="12.39229908964456" cx="528.3908112998816" cy="713.2931842319692" opacity="0.4098692470002361"></circle><circle r="4.772897688102794" cx="390.74842821891576" cy="296.57731585148696" opacity="0.8767957777282732"></circle><circle r="7.115486947771052" cx="170.16087601505322" cy="653.4467595785745" opacity="0.3447424683479054"></circle><circle r="8.034089758087632" cx="13.816363551904182" cy="614.0785832568075" opacity="0.5143891076948763"></circle><circle r="8.974004533814256" cx="224.36586437745905" cy="169.99233850157026" opacity="0.5239444151695619"></circle><circle r="9.129082249479117" cx="184.3352244822994" cy="537.4762364135104" opacity="0.5940172055625005"></circle><circle r="8.140537480476898" cx="528.3136784484818" cy="275.9100142907899" opacity="0.40843984366567054"></circle><circle r="5.548039803673681" cx="18.83430308322212" cy="310.7290486352254" opacity="0.4066295222578076"></circle><circle r="7.142247512120488" cx="494.393704906178" cy="271.92714519816957" opacity="0.9186861264559447"></circle><circle r="6.271480935781991" cx="452.70378217730286" cy="294.7896941033744" opacity="0.9060125005488309"></circle><circle r="5.374226937505355" cx="113.51558484939525" cy="379.2246738051373" opacity="0.3195345619876395"></circle><circle r="4.708264060451544" cx="669.188191235395" cy="634.8793684085553" opacity="0.7382526713548616"></circle><circle r="7.914453416971313" cx="497.99126132707033" cy="396.94704172066093" opacity="0.38187739104642227"></circle><circle r="4.574990152314828" cx="439.5577850560337" cy="538.1985863607028" opacity="0.9974436352814942"></circle><circle r="4.087322161596012" cx="764.219524054507" cy="325.3734043247058" opacity="0.43965148585143954"></circle><circle r="5.281700445508577" cx="24.262313259433096" cy="683.7457702228406" opacity="0.8924610803346678"></circle><circle r="6.009997094630945" cx="668.9064148962761" cy="191.89919204426707" opacity="0.2251274904276012"></circle><circle r="4.473802931188621" cx="716.8623568770685" cy="240.35456558470239" opacity="0.7418171343346888"></circle><circle r="4.70253895916992" cx="475.410931028912" cy="530.4289800846376" opacity="0.6695905728436936"></circle><circle r="5.682443234372819" cx="456.82640537293764" cy="486.5978424267662" opacity="0.5186187837671326"></circle><circle r="9.651069310312982" cx="319.731333007781" cy="300.97887770389576" opacity="0.23011083761286835"></circle><circle r="8.33885110260983" cx="175.09424684855043" cy="109.54680910972593" opacity="0.26952307414528637"></circle><circle r="4.986432607991267" cx="771.4616799764317" cy="355.4567529148367" opacity="0.9306751672143798"></circle><circle r="4.575801761317743" cx="688.6215657006295" cy="716.2768049726072" opacity="0.9219091546349045"></circle><circle r="6.97101986867" cx="62.24058648283123" cy="249.29162404920177" opacity="0.9616848654791368"></circle><circle r="7.9635458577520515" cx="640.2832449288713" cy="386.26763512498525" opacity="0.6352243170003411"></circle><circle r="6.4736646285468185" cx="403.6598397569091" cy="142.48406296878426" opacity="0.7893297650569896"></circle><circle r="11.49359068345767" cx="278.0048258174832" cy="462.99337453901046" opacity="0.5555088974389331"></circle><circle r="9.472691111449986" cx="780.2534419473791" cy="124.60834211225708" opacity="0.47331645134776223"></circle><circle r="6.536279714024697" cx="129.1056317381796" cy="732.3608921317361" opacity="0.7406644197792132"></circle><circle r="6.073548535739851" cx="674.4645382002356" cy="350.25304280176726" opacity="0.9750699843174275"></circle><circle r="10.478104703552852" cx="541.2910554935203" cy="133.51361246320906" opacity="0.11694286597743796"></circle><circle r="7.465998071360561" cx="287.8406892249639" cy="298.9853549238331" opacity="0.9114283194966329"></circle><circle r="6.784662209889731" cx="171.69165070660017" cy="765.7594975038514" opacity="0.7099520258810817"></circle><circle r="8.242540411516519" cx="69.76237279714118" cy="353.5589821027602" opacity="0.9257080824122867"></circle><circle r="6.456517928596673" cx="681.5881688713304" cy="72.49957283935225" opacity="0.20292041607468708"></circle><circle r="4.948114007567329" cx="784.7150503214862" cy="182.8851647244523" opacity="0.21491406207543148"></circle><circle r="9.722907755112178" cx="275.4754732927126" cy="228.7298038213771" opacity="0.24716910335070372"></circle><circle r="7.705788748369312" cx="266.72169938937543" cy="273.6098854004512" opacity="0.8185984175256986"></circle><circle r="7.656607691177946" cx="73.08343138620978" cy="660.6624167213951" opacity="0.849381493861965"></circle><circle r="4.45656706333011" cx="49.960797979060935" cy="566.3967829439499" opacity="0.32673081826910233"></circle><circle r="9.89256288381614" cx="369.35185122316136" cy="668.8664724402519" opacity="0.8451996350385533"></circle><circle r="8.609212313615583" cx="19.740149655421828" cy="199.85152020944685" opacity="0.6182275058333957"></circle><circle r="7.407887351780506" cx="192.39306366842317" cy="323.9025325221848" opacity="0.8439307039402129"></circle><circle r="6.822156371538965" cx="670.9571214463451" cy="26.145588693913385" opacity="0.11440885729388282"></circle><circle r="3.584665381481444" cx="787.2283056238397" cy="287.8637813235895" opacity="0.896995552366264"></circle><circle r="10.479801891302007" cx="727.1418746742656" cy="582.6142948927779" opacity="0.8138119569174077"></circle><circle r="5.00514167447311" cx="565.6006029317879" cy="400.76159440616397" opacity="0.2892693600849325"></circle><circle r="7.069206327532431" cx="412.9919218167563" cy="561.2376623488865" opacity="0.5089886626809802"></circle><circle r="8.944469928241768" cx="250.9334435998453" cy="65.91853595984841" opacity="0.586380669022701"></circle><circle r="9.623192567051536" cx="41.192849315301736" cy="735.303294084685" opacity="0.4102679525372358"></circle><circle r="10.024001625511323" cx="230.61920033548952" cy="698.2458156366446" opacity="0.31599869120396157"></circle><circle r="4.759235131406769" cx="715.2769782731693" cy="638.5484581654239" opacity="0.8595622482577686"></circle><circle r="8.380648235907067" cx="103.9377763708047" cy="595.3067062629829" opacity="0.6551649756660702"></circle><circle r="4.4910886523725075" cx="282.2914960738815" cy="49.36508655689871" opacity="0.27352330660319857"></circle><circle r="4.443006408668748" cx="760.1716607681443" cy="44.398301489020874" opacity="0.7961209547888447"></circle><circle r="6.66872849967241" cx="410.28514536394675" cy="412.41142174173234" opacity="0.860185955017457"></circle><circle r="7.725769997675866" cx="139.36685208677554" cy="145.40781362953962" opacity="0.7285683028215855"></circle><circle r="4.394190694749225" cx="299.85145482697715" cy="428.8554419485805" opacity="0.9079098267282181"></circle><circle r="8.202599870444075" cx="59.14094726700134" cy="389.6797927270474" opacity="0.8295644090621864"></circle><circle r="10.000188405995127" cx="20.558604205560272" cy="409.581717726045" opacity="0.928120525026172"></circle><circle r="5.525574678796573" cx="740.6493866759188" cy="107.00213521986099" opacity="0.24710709373645262"></circle><circle r="10.137959565891315" cx="460.0212925735031" cy="167.03941901960724" opacity="0.3323644946146841"></circle><circle r="9.458755827775681" cx="413.06201789883363" cy="367.13261637644024" opacity="0.10934617634666047"></circle><circle r="7.067543224004709" cx="613.1109314550787" cy="17.999877177865475" opacity="0.23637660377462866"></circle><circle r="6.137904253550996" cx="352.189556859503" cy="162.1225487724592" opacity="0.15071604828902782"></circle><circle r="6.991572082917562" cx="233.60484831892796" cy="584.7056684447407" opacity="0.9487845683517417"></circle><circle r="6.74402556208694" cx="373.6413035862174" cy="459.12083244837413" opacity="0.539004682287952"></circle><circle r="6.107443128156545" cx="379.2145745184442" cy="755.043058011314" opacity="0.6284594812306317"></circle><circle r="5.741981756031554" cx="626.8981471690919" cy="223.22212551027823" opacity="0.41614929673644385"></circle><circle r="5.345503229690301" cx="96.96553536076915" cy="533.092654174246" opacity="0.12879096795661912"></circle><circle r="7.639598959083649" cx="701.3815476166321" cy="461.4156017239448" opacity="0.34274849944026853"></circle><circle r="11.357083454061051" cx="137.97776800989675" cy="566.8579097160832" opacity="0.5903455395726586"></circle><circle r="5.191976199792654" cx="768.6307752705699" cy="582.3779678165813" opacity="0.5042758528089344"></circle><circle r="7.527217186098277" cx="749.5831457991982" cy="657.5060381588364" opacity="0.34061939050452184"></circle><circle r="6.287835633358554" cx="48.858341232383296" cy="628.8216429359719" opacity="0.9695999528662853"></circle><circle r="3.502519291726342" cx="380.9450308349587" cy="11.518935538257002" opacity="0.21664348865130487"></circle><circle r="7.07909066055006" cx="134.3755939076117" cy="697.3243824762137" opacity="0.9098624370868539"></circle><circle r="3.1811322852012127" cx="788.0795819254632" cy="47.94960686384724" opacity="0.32429047462515337"></circle><circle r="4.44312081739902" cx="766.0527845998489" cy="680.2326312823251" opacity="0.27806592521573925"></circle><circle r="5.541246992329025" cx="67.66769404806931" cy="595.989620998322" opacity="0.7874401843604871"></circle><circle r="4.62855949249139" cx="272.2861667006046" cy="342.66337963985023" opacity="0.442913432967886"></circle><circle r="8.368732535951642" cx="348.7042766491951" cy="44.07040869907632" opacity="0.6260371815050493"></circle><circle r="5.56569559714937" cx="605.2698142617273" cy="603.0334467877495" opacity="0.5255951701967984"></circle><circle r="6.390108466466205" cx="682.7710081298272" cy="226.63619726255013" opacity="0.4810306624537729"></circle><circle r="6.284957566552043" cx="486.73055345171184" cy="461.14278869250745" opacity="0.8685391196625329"></circle><circle r="10.359167857818615" cx="617.2606933856396" cy="457.7088855675257" opacity="0.6525538963039957"></circle><circle r="5.204446106728707" cx="707.577957780146" cy="108.96044222374223" opacity="0.3241972735631928"></circle><circle r="5.5707666648141085" cx="707.9805541188964" cy="299.5299930329049" opacity="0.3504743234844132"></circle><circle r="7.835048393815557" cx="377.8937069008877" cy="713.0353736047405" opacity="0.5378314105258253"></circle><circle r="12.146704742103433" cx="283.3843816774418" cy="525.6483654217755" opacity="0.8883627827169789"></circle><circle r="8.265344298345076" cx="716.0543481334715" cy="676.3056677640285" opacity="0.5522264655821022"></circle><circle r="6.850009192911607" cx="349.7377887138" cy="275.0181324602578" opacity="0.9693199191766166"></circle><circle r="7.187896390106439" cx="433.6346622442735" cy="26.516117182237604" opacity="0.7569157577501819"></circle><circle r="6.692166897782249" cx="142.92433553901395" cy="777.0751475799608" opacity="0.8124191832821377"></circle><circle r="9.356030311585021" cx="562.0223158150045" cy="193.96505042247148" opacity="0.1756919614340235"></circle><circle r="8.05075494080176" cx="413.0993933488816" cy="496.2968937552804" opacity="0.17211435752527446"></circle><circle r="9.941801845932677" cx="593.3392500063621" cy="54.61233769621366" opacity="0.43854775591542006"></circle><circle r="5.03298076051716" cx="646.3622909689788" cy="207.4635840612258" opacity="0.4828242378901276"></circle><circle r="6.578446122908865" cx="23.124468245847577" cy="147.84486890497323" opacity="0.37490613497238645"></circle><circle r="3.8259743260696535" cx="259.7187559476874" cy="31.058221804450753" opacity="0.6341154159872758"></circle><circle r="6.258483011003782" cx="193.0043944865991" cy="455.3547113706006" opacity="0.7801284522311844"></circle><circle r="8.509147965131687" cx="327.05840339494426" cy="750.1521478842483" opacity="0.17997102993656056"></circle><circle r="8.244316723097832" cx="447.5915983296532" cy="217.8968056441965" opacity="0.26406291878759125"></circle><circle r="6.435915076068687" cx="323.01577643417573" cy="483.3350324365789" opacity="0.7803816449244177"></circle><circle r="5.894362801281259" cx="289.01110062232414" cy="388.67806636873644" opacity="0.4764020863836368"></circle><circle r="9.752042987209217" cx="684.5102902783838" cy="579.4124183200605" opacity="0.6042372326533585"></circle><circle r="5.596425730881467" cx="769.0564019988014" cy="266.79729383335" opacity="0.4197335303515882"></circle><circle r="8.573899795087957" cx="640.3368602375971" cy="765.153719768012" opacity="0.11304543443923913"></circle><circle r="5.9079841388919725" cx="643.4092826914687" cy="328.640560377849" opacity="0.7760642966231922"></circle><circle r="6.409011956605967" cx="753.9441968233098" cy="16.17825866612529" opacity="0.19697834062325179"></circle><circle r="4.049785421700751" cx="86.57423100074644" cy="565.1260754034593" opacity="0.15699020827292873"></circle><circle r="7.961988057739893" cx="167.76144093564827" cy="691.3989808652279" opacity="0.9324006562897174"></circle><circle r="9.137937634420986" cx="726.5876982960631" cy="507.31412139474725" opacity="0.8276531873272887"></circle><circle r="9.781702876103413" cx="109.8032865759958" cy="493.67043051566316" opacity="0.21420013974605445"></circle><circle r="10.243025176380087" cx="254.32756210982052" cy="734.9282595904733" opacity="0.3584638589507727"></circle><circle r="5.202821790305761" cx="507.3695532821761" cy="439.19120587764576" opacity="0.9295747441443143"></circle><circle r="10.365019045045308" cx="35.54146328721357" cy="34.60776745251306" opacity="0.3620751458943122"></circle><circle r="7.115977988274422" cx="378.44257599036143" cy="626.8602015583244" opacity="0.39537974830094125"></circle><circle r="6.150297088332135" cx="521.5635886309492" cy="552.7371319178626" opacity="0.2438895181335629"></circle><circle r="5.9679879952282615" cx="709.3623879564841" cy="783.6226828045999" opacity="0.4753605595379877"></circle><circle r="3.6458250686068077" cx="337.21361467364034" cy="786.3847695905569" opacity="0.8148792739356483"></circle><circle r="5.111119397191959" cx="747.0491014279263" cy="619.9273672541572" opacity="0.6685100269334912"></circle><circle r="5.4521262946282745" cx="713.7978584060204" cy="191.88652594774018" opacity="0.6205776170082845"></circle><circle r="4.800072516847638" cx="220.20306237077563" cy="75.98456855864276" opacity="0.7939161592859596"></circle><circle r="8.065054960826886" cx="90.99114480636287" cy="627.7464499220404" opacity="0.3633981822038934"></circle><circle r="6.433196913271023" cx="117.44498784126372" cy="241.14115055055828" opacity="0.42209694320075286"></circle><circle r="9.391763707860093" cx="719.513757143871" cy="18.9195499819199" opacity="0.45492266985419794"></circle><circle r="3.258555536248779" cx="450.5052921295149" cy="580.7457187545514" opacity="0.9239226715779091"></circle><circle r="10.07976715037498" cx="84.6648350257114" cy="730.3485709493602" opacity="0.38917552072221606"></circle><circle r="11.679181674671078" cx="588.7204762642227" cy="104.27075696976969" opacity="0.7843071475952781"></circle><circle r="8.9966932879998" cx="459.039180951754" cy="377.55150406352186" opacity="0.30045199221967617"></circle><circle r="7.134232813626007" cx="13.721507879616446" cy="573.9970031599602" opacity="0.786232023312532"></circle><circle r="7.178858547549666" cx="782.3618100039968" cy="638.1968435379093" opacity="0.7599021312400288"></circle><circle r="4.741817004239073" cx="343.42353881864466" cy="617.0463898513418" opacity="0.9743025021546127"></circle><circle r="6.473373255398012" cx="664.9655559202993" cy="688.2275131865849" opacity="0.5225527509821429"></circle><circle r="13.434509348418114" cx="771.8732148353408" cy="768.5560921006102" opacity="0.3519006739702544"></circle><circle r="6.482256725902886" cx="496.314965395004" cy="84.19502630730116" opacity="0.36565233619188875"></circle><circle r="7.064307948164862" cx="139.11715334473155" cy="81.1345854513332" opacity="0.4120083019461849"></circle><circle r="7.148196923109916" cx="233.75050083239768" cy="778.4111986494847" opacity="0.1524008868581093"></circle><circle r="5.339369891726458" cx="724.7507477398791" cy="56.12844794073059" opacity="0.7736834057376413"></circle><circle r="5.196464462293191" cx="536.5691813140514" cy="417.56764454237083" opacity="0.7879139130493422"></circle><circle r="9.074074129322824" cx="54.14760374719746" cy="441.23048783095254" opacity="0.9218723466534362"></circle><circle r="8.878549663930038" cx="216.76633022415456" cy="400.1867805148274" opacity="0.705572499137473"></circle><circle r="8.201228194889016" cx="186.4520255733378" cy="727.8846565720304" opacity="0.8542862023128566"></circle><circle r="6.295533140951381" cx="418.2569170096608" cy="328.3333486906599" opacity="0.11681703405934342"></circle><circle r="9.137966765587105" cx="377.97324395981525" cy="544.3048934837375" opacity="0.22609025645181324"></circle><circle r="4.368571451338609" cx="596.8859977447032" cy="509.36476241003436" opacity="0.14308948189936527"></circle><circle r="5.778284203201524" cx="647.689484987457" cy="159.27512804924714" opacity="0.8265547354765087"></circle><circle r="6.395213842985299" cx="86.81849629350678" cy="169.88263038668995" opacity="0.7673319279729851"></circle><circle r="6.756016519634079" cx="54.31714142173499" cy="197.8772117687051" opacity="0.7146111628997553"></circle><circle r="7.252870157184644" cx="724.5463993678316" cy="139.6496920511535" opacity="0.28411398124341747"></circle><circle r="4.53505574634338" cx="626.5217570060407" cy="304.40826179017563" opacity="0.8402535725641471"></circle><circle r="8.118817860718423" cx="752.7860269585788" cy="205.67431866107174" opacity="0.2598882907804263"></circle><circle r="9.618246321800111" cx="329.69382398624003" cy="703.6647679994473" opacity="0.6037163761555764"></circle><circle r="6.462630780066709" cx="186.3590851267515" cy="64.49600443176563" opacity="0.38409500202330626"></circle><circle r="7.388157160705872" cx="664.7710943971827" cy="491.2977970791373" opacity="0.9372030212364121"></circle><circle r="4.378297913388316" cx="454.65622372043146" cy="257.1535587613692" opacity="0.1020396304128377"></circle><circle r="6.805171995578457" cx="365.8432436949353" cy="423.5437864192042" opacity="0.30372271273910123"></circle><circle r="7.79166650206379" cx="159.86222562172452" cy="251.6433742281205" opacity="0.10100018593560964"></circle><circle r="8.05022819097236" cx="370.9915582006932" cy="582.361613704411" opacity="0.13476554358375703"></circle><circle r="7.672178018714238" cx="398.7894066255957" cy="241.46630527528222" opacity="0.24986617418764584"></circle><circle r="4.778006574059496" cx="415.0702062100895" cy="273.1012628727988" opacity="0.31830973578412847"></circle><circle r="2.3761287888758207" cx="791.4704360568066" cy="588.0014793273173" opacity="0.39562339642375477"></circle><circle r="8.44133406568424" cx="123.14562426763317" cy="658.7411402357246" opacity="0.7540066000189574"></circle><circle r="4.350877139430961" cx="691.5073734723794" cy="320.6052128760177" opacity="0.3829986619032584"></circle><circle r="8.75656519278997" cx="177.0382415940962" cy="410.9872361642949" opacity="0.362668609537393"></circle><circle r="7.880167217542638" cx="552.5701936331454" cy="345.0951896326291" opacity="0.9749388880064269"></circle><circle r="8.12242817981237" cx="289.44690587584137" cy="697.1292474790607" opacity="0.7315586800717143"></circle><circle r="7.686502859730021" cx="229.3818313056529" cy="290.6461960121987" opacity="0.6276833107810643"></circle><circle r="4.804557754653211" cx="752.5230430464815" cy="303.0178217195498" opacity="0.5388888173369965"></circle><circle r="10.669503828483247" cx="316.62802594757926" cy="244.96144170163902" opacity="0.8777668809493046"></circle><circle r="9.126663841873047" cx="596.3622940238439" cy="236.8254131066942" opacity="0.927535227181717"></circle><circle r="6.064422906400428" cx="666.0128883888249" cy="290.98666590472106" opacity="0.9175305552847023"></circle><circle r="5.510153637582129" cx="336.4452427599515" cy="337.8375181737329" opacity="0.2709642747518335"></circle><circle r="9.97836639411827" cx="139.69765111189068" cy="438.6978404385403" opacity="0.2187150172994995"></circle><circle r="8.959153414662522" cx="499.6545372133539" cy="229.18794335809184" opacity="0.4777788300851693"></circle><circle r="12.466870294108503" cx="32.47230118652031" cy="98.67838417707085" opacity="0.40573840528302885"></circle><circle r="6.137782260746761" cx="709.6175417858095" cy="81.39565975579977" opacity="0.8330089612001413"></circle><circle r="6.283033596448722" cx="784.8829310728145" cy="15.03590100784877" opacity="0.3305545676757436"></circle><circle r="9.348683433449814" cx="736.1559028777522" cy="432.28048287653087" opacity="0.4638876281761567"></circle><circle r="4.055209250572596" cx="25.200444647265222" cy="653.2306874441078" opacity="0.7062015158164844"></circle><circle r="6.7134763937754744" cx="731.8792563102952" cy="730.6520840007695" opacity="0.5016031533966776"></circle><circle r="6.637338370774631" cx="370.2031042334457" cy="357.0144271193985" opacity="0.6242840034347684"></circle><circle r="8.77471488464228" cx="373.5937589354251" cy="82.35717207498436" opacity="0.7978209833520183"></circle><circle r="8.161778546110883" cx="332.92628410039936" cy="122.95602926688791" opacity="0.7252657257855117"></circle><circle r="9.098657283357397" cx="184.5468943708235" cy="213.0264984060557" opacity="0.23898745232604945"></circle><circle r="6.225055966827652" cx="484.50378557665863" cy="23.721185372902315" opacity="0.976785123175393"></circle><circle r="8.214019521910897" cx="752.986164807055" cy="160.69779133880667" opacity="0.5443528574367245"></circle><circle r="3.491773056807031" cx="688.0059157390773" cy="260.80781858019384" opacity="0.9394304041735504"></circle><circle r="9.00739552366839" cx="575.0845239335142" cy="451.0328322454631" opacity="0.4896826104215044"></circle><circle r="9.718156012104586" cx="54.69233304900282" cy="500.99522587848793" opacity="0.30236291821637984"></circle><circle r="7.877889073560316" cx="693.3220767575434" cy="751.7074774702087" opacity="0.8889935568320795"></circle><circle r="7.554167956105314" cx="631.663917155481" cy="125.75436100671804" opacity="0.3920049902771172"></circle><circle r="8.434866907555161" cx="255.07072014950572" cy="633.498053071429" opacity="0.21002510493961662"></circle></g></svg>